<mxfile host="app.diagrams.net" modified="2021-02-04T23:29:26.922Z" agent="5.0 (Windows NT 10.0; Win64; x64) AppleWebKit/537.36 (KHTML, like Gecko) Chrome/88.0.4324.104 Safari/537.36" etag="rBjv2hIQIdvyzhtpxse0" version="14.2.9" type="github">
  <diagram id="Xb4VBxsHIV5QUS3rKN3F" name="Page-1">
    <mxGraphModel dx="3552" dy="2756" grid="1" gridSize="10" guides="1" tooltips="1" connect="1" arrows="1" fold="1" page="1" pageScale="1" pageWidth="827" pageHeight="1169" math="0" shadow="0">
      <root>
        <mxCell id="0" />
        <mxCell id="1" parent="0" />
        <mxCell id="UDVTchjKbU1Y_iN-SW1D-1" value="model" style="shape=folder;fontStyle=1;tabWidth=110;tabHeight=30;tabPosition=left;html=1;boundedLbl=1;labelInHeader=1;container=1;collapsible=0;recursiveResize=0;" vertex="1" parent="1">
          <mxGeometry x="-440" y="480" width="1010" height="530" as="geometry" />
        </mxCell>
        <mxCell id="UDVTchjKbU1Y_iN-SW1D-7" value="repository" style="shape=folder;fontStyle=1;tabWidth=110;tabHeight=30;tabPosition=left;html=1;boundedLbl=1;labelInHeader=1;container=1;collapsible=0;recursiveResize=0;" vertex="1" parent="UDVTchjKbU1Y_iN-SW1D-1">
          <mxGeometry x="490" y="40" width="510" height="480" as="geometry" />
        </mxCell>
        <mxCell id="UDVTchjKbU1Y_iN-SW1D-129" value="DataManager" style="swimlane;fontStyle=1;align=center;verticalAlign=top;childLayout=stackLayout;horizontal=1;startSize=26;horizontalStack=0;resizeParent=1;resizeParentMax=0;resizeLast=0;collapsible=1;marginBottom=0;strokeWidth=1;gradientColor=none;" vertex="1" parent="UDVTchjKbU1Y_iN-SW1D-7">
          <mxGeometry x="10" y="40" width="160" height="138" as="geometry" />
        </mxCell>
        <mxCell id="UDVTchjKbU1Y_iN-SW1D-130" value="- events: Events" style="text;strokeColor=none;fillColor=none;align=left;verticalAlign=top;spacingLeft=4;spacingRight=4;overflow=hidden;rotatable=0;points=[[0,0.5],[1,0.5]];portConstraint=eastwest;fontStyle=0" vertex="1" parent="UDVTchjKbU1Y_iN-SW1D-129">
          <mxGeometry y="26" width="160" height="26" as="geometry" />
        </mxCell>
        <mxCell id="UDVTchjKbU1Y_iN-SW1D-131" value="- users: User[]" style="text;strokeColor=none;fillColor=none;align=left;verticalAlign=top;spacingLeft=4;spacingRight=4;overflow=hidden;rotatable=0;points=[[0,0.5],[1,0.5]];portConstraint=eastwest;fontStyle=0" vertex="1" parent="UDVTchjKbU1Y_iN-SW1D-129">
          <mxGeometry y="52" width="160" height="26" as="geometry" />
        </mxCell>
        <mxCell id="UDVTchjKbU1Y_iN-SW1D-132" value="" style="line;strokeWidth=1;fillColor=none;align=left;verticalAlign=middle;spacingTop=-1;spacingLeft=3;spacingRight=3;rotatable=0;labelPosition=right;points=[];portConstraint=eastwest;" vertex="1" parent="UDVTchjKbU1Y_iN-SW1D-129">
          <mxGeometry y="78" width="160" height="8" as="geometry" />
        </mxCell>
        <mxCell id="UDVTchjKbU1Y_iN-SW1D-133" value="+ getEvents(): Event[]" style="text;strokeColor=none;fillColor=none;align=left;verticalAlign=top;spacingLeft=4;spacingRight=4;overflow=hidden;rotatable=0;points=[[0,0.5],[1,0.5]];portConstraint=eastwest;fontStyle=0" vertex="1" parent="UDVTchjKbU1Y_iN-SW1D-129">
          <mxGeometry y="86" width="160" height="26" as="geometry" />
        </mxCell>
        <mxCell id="UDVTchjKbU1Y_iN-SW1D-134" value="+ getUsers(): User[]" style="text;strokeColor=none;fillColor=none;align=left;verticalAlign=top;spacingLeft=4;spacingRight=4;overflow=hidden;rotatable=0;points=[[0,0.5],[1,0.5]];portConstraint=eastwest;fontStyle=0" vertex="1" parent="UDVTchjKbU1Y_iN-SW1D-129">
          <mxGeometry y="112" width="160" height="26" as="geometry" />
        </mxCell>
        <mxCell id="UDVTchjKbU1Y_iN-SW1D-135" value="Events" style="swimlane;fontStyle=1;align=center;verticalAlign=top;childLayout=stackLayout;horizontal=1;startSize=26;horizontalStack=0;resizeParent=1;resizeParentMax=0;resizeLast=0;collapsible=1;marginBottom=0;strokeWidth=1;gradientColor=none;" vertex="1" parent="UDVTchjKbU1Y_iN-SW1D-7">
          <mxGeometry x="194" y="40" width="306" height="216" as="geometry" />
        </mxCell>
        <mxCell id="UDVTchjKbU1Y_iN-SW1D-136" value="- eventsList: ArrayList&lt;User&gt;" style="text;strokeColor=none;fillColor=none;align=left;verticalAlign=top;spacingLeft=4;spacingRight=4;overflow=hidden;rotatable=0;points=[[0,0.5],[1,0.5]];portConstraint=eastwest;fontStyle=0" vertex="1" parent="UDVTchjKbU1Y_iN-SW1D-135">
          <mxGeometry y="26" width="306" height="26" as="geometry" />
        </mxCell>
        <mxCell id="UDVTchjKbU1Y_iN-SW1D-141" value="- eventMainMessagesByEvents: Event[]" style="text;strokeColor=none;fillColor=none;align=left;verticalAlign=top;spacingLeft=4;spacingRight=4;overflow=hidden;rotatable=0;points=[[0,0.5],[1,0.5]];portConstraint=eastwest;fontStyle=0;labelBorderColor=none;" vertex="1" parent="UDVTchjKbU1Y_iN-SW1D-135">
          <mxGeometry y="52" width="306" height="26" as="geometry" />
        </mxCell>
        <mxCell id="UDVTchjKbU1Y_iN-SW1D-138" value="" style="line;strokeWidth=1;fillColor=none;align=left;verticalAlign=middle;spacingTop=-1;spacingLeft=3;spacingRight=3;rotatable=0;labelPosition=right;points=[];portConstraint=eastwest;" vertex="1" parent="UDVTchjKbU1Y_iN-SW1D-135">
          <mxGeometry y="78" width="306" height="8" as="geometry" />
        </mxCell>
        <mxCell id="UDVTchjKbU1Y_iN-SW1D-139" value="+ add(Event)" style="text;strokeColor=none;fillColor=none;align=left;verticalAlign=top;spacingLeft=4;spacingRight=4;overflow=hidden;rotatable=0;points=[[0,0.5],[1,0.5]];portConstraint=eastwest;fontStyle=0" vertex="1" parent="UDVTchjKbU1Y_iN-SW1D-135">
          <mxGeometry y="86" width="306" height="26" as="geometry" />
        </mxCell>
        <mxCell id="UDVTchjKbU1Y_iN-SW1D-162" value="+ getById(int)" style="text;strokeColor=none;fillColor=none;align=left;verticalAlign=top;spacingLeft=4;spacingRight=4;overflow=hidden;rotatable=0;points=[[0,0.5],[1,0.5]];portConstraint=eastwest;fontStyle=0" vertex="1" parent="UDVTchjKbU1Y_iN-SW1D-135">
          <mxGeometry y="112" width="306" height="26" as="geometry" />
        </mxCell>
        <mxCell id="UDVTchjKbU1Y_iN-SW1D-163" value="+ getEventMainMessageByEvent(Event): Message" style="text;strokeColor=none;fillColor=none;align=left;verticalAlign=top;spacingLeft=4;spacingRight=4;overflow=hidden;rotatable=0;points=[[0,0.5],[1,0.5]];portConstraint=eastwest;fontStyle=0" vertex="1" parent="UDVTchjKbU1Y_iN-SW1D-135">
          <mxGeometry y="138" width="306" height="26" as="geometry" />
        </mxCell>
        <mxCell id="UDVTchjKbU1Y_iN-SW1D-161" value="+ getList(): Event[]" style="text;strokeColor=none;fillColor=none;align=left;verticalAlign=top;spacingLeft=4;spacingRight=4;overflow=hidden;rotatable=0;points=[[0,0.5],[1,0.5]];portConstraint=eastwest;fontStyle=0" vertex="1" parent="UDVTchjKbU1Y_iN-SW1D-135">
          <mxGeometry y="164" width="306" height="26" as="geometry" />
        </mxCell>
        <mxCell id="UDVTchjKbU1Y_iN-SW1D-143" value="+ remove(Event)" style="text;strokeColor=none;fillColor=none;align=left;verticalAlign=top;spacingLeft=4;spacingRight=4;overflow=hidden;rotatable=0;points=[[0,0.5],[1,0.5]];portConstraint=eastwest;fontStyle=0" vertex="1" parent="UDVTchjKbU1Y_iN-SW1D-135">
          <mxGeometry y="190" width="306" height="26" as="geometry" />
        </mxCell>
        <mxCell id="UDVTchjKbU1Y_iN-SW1D-145" value="Users" style="swimlane;fontStyle=1;align=center;verticalAlign=top;childLayout=stackLayout;horizontal=1;startSize=26;horizontalStack=0;resizeParent=1;resizeParentMax=0;resizeLast=0;collapsible=1;marginBottom=0;strokeWidth=1;gradientColor=none;" vertex="1" parent="UDVTchjKbU1Y_iN-SW1D-7">
          <mxGeometry x="194" y="280" width="306" height="164" as="geometry" />
        </mxCell>
        <mxCell id="UDVTchjKbU1Y_iN-SW1D-146" value="- usersList: ArrayList&lt;User&gt;" style="text;strokeColor=none;fillColor=none;align=left;verticalAlign=top;spacingLeft=4;spacingRight=4;overflow=hidden;rotatable=0;points=[[0,0.5],[1,0.5]];portConstraint=eastwest;fontStyle=0" vertex="1" parent="UDVTchjKbU1Y_iN-SW1D-145">
          <mxGeometry y="26" width="306" height="26" as="geometry" />
        </mxCell>
        <mxCell id="UDVTchjKbU1Y_iN-SW1D-148" value="" style="line;strokeWidth=1;fillColor=none;align=left;verticalAlign=middle;spacingTop=-1;spacingLeft=3;spacingRight=3;rotatable=0;labelPosition=right;points=[];portConstraint=eastwest;" vertex="1" parent="UDVTchjKbU1Y_iN-SW1D-145">
          <mxGeometry y="52" width="306" height="8" as="geometry" />
        </mxCell>
        <mxCell id="UDVTchjKbU1Y_iN-SW1D-149" value="+ add(User)" style="text;strokeColor=none;fillColor=none;align=left;verticalAlign=top;spacingLeft=4;spacingRight=4;overflow=hidden;rotatable=0;points=[[0,0.5],[1,0.5]];portConstraint=eastwest;fontStyle=0" vertex="1" parent="UDVTchjKbU1Y_iN-SW1D-145">
          <mxGeometry y="60" width="306" height="26" as="geometry" />
        </mxCell>
        <mxCell id="UDVTchjKbU1Y_iN-SW1D-155" value="+ getById(id: long)" style="text;strokeColor=none;fillColor=none;align=left;verticalAlign=top;spacingLeft=4;spacingRight=4;overflow=hidden;rotatable=0;points=[[0,0.5],[1,0.5]];portConstraint=eastwest;fontStyle=0" vertex="1" parent="UDVTchjKbU1Y_iN-SW1D-145">
          <mxGeometry y="86" width="306" height="26" as="geometry" />
        </mxCell>
        <mxCell id="UDVTchjKbU1Y_iN-SW1D-160" value="+ getList(): User[]" style="text;strokeColor=none;fillColor=none;align=left;verticalAlign=top;spacingLeft=4;spacingRight=4;overflow=hidden;rotatable=0;points=[[0,0.5],[1,0.5]];portConstraint=eastwest;fontStyle=0" vertex="1" parent="UDVTchjKbU1Y_iN-SW1D-145">
          <mxGeometry y="112" width="306" height="26" as="geometry" />
        </mxCell>
        <mxCell id="UDVTchjKbU1Y_iN-SW1D-152" value="+ remove(User)" style="text;strokeColor=none;fillColor=none;align=left;verticalAlign=top;spacingLeft=4;spacingRight=4;overflow=hidden;rotatable=0;points=[[0,0.5],[1,0.5]];portConstraint=eastwest;fontStyle=0" vertex="1" parent="UDVTchjKbU1Y_iN-SW1D-145">
          <mxGeometry y="138" width="306" height="26" as="geometry" />
        </mxCell>
        <mxCell id="UDVTchjKbU1Y_iN-SW1D-6" value="entity" style="shape=folder;fontStyle=1;tabWidth=110;tabHeight=30;tabPosition=left;html=1;boundedLbl=1;labelInHeader=1;container=1;collapsible=0;recursiveResize=0;" vertex="1" parent="UDVTchjKbU1Y_iN-SW1D-1">
          <mxGeometry x="10" y="40" width="410" height="480" as="geometry" />
        </mxCell>
        <mxCell id="UDVTchjKbU1Y_iN-SW1D-54" value="User" style="swimlane;fontStyle=1;align=center;verticalAlign=top;childLayout=stackLayout;horizontal=1;startSize=26;horizontalStack=0;resizeParent=1;resizeParentMax=0;resizeLast=0;collapsible=1;marginBottom=0;strokeWidth=1;gradientColor=none;" vertex="1" parent="UDVTchjKbU1Y_iN-SW1D-6">
          <mxGeometry x="10" y="40" width="160" height="138" as="geometry" />
        </mxCell>
        <mxCell id="UDVTchjKbU1Y_iN-SW1D-55" value="- id: long" style="text;strokeColor=none;fillColor=none;align=left;verticalAlign=top;spacingLeft=4;spacingRight=4;overflow=hidden;rotatable=0;points=[[0,0.5],[1,0.5]];portConstraint=eastwest;fontStyle=0" vertex="1" parent="UDVTchjKbU1Y_iN-SW1D-54">
          <mxGeometry y="26" width="160" height="26" as="geometry" />
        </mxCell>
        <mxCell id="UDVTchjKbU1Y_iN-SW1D-59" value="- name: String" style="text;strokeColor=none;fillColor=none;align=left;verticalAlign=top;spacingLeft=4;spacingRight=4;overflow=hidden;rotatable=0;points=[[0,0.5],[1,0.5]];portConstraint=eastwest;fontStyle=0" vertex="1" parent="UDVTchjKbU1Y_iN-SW1D-54">
          <mxGeometry y="52" width="160" height="26" as="geometry" />
        </mxCell>
        <mxCell id="UDVTchjKbU1Y_iN-SW1D-57" value="" style="line;strokeWidth=1;fillColor=none;align=left;verticalAlign=middle;spacingTop=-1;spacingLeft=3;spacingRight=3;rotatable=0;labelPosition=right;points=[];portConstraint=eastwest;" vertex="1" parent="UDVTchjKbU1Y_iN-SW1D-54">
          <mxGeometry y="78" width="160" height="8" as="geometry" />
        </mxCell>
        <mxCell id="UDVTchjKbU1Y_iN-SW1D-58" value="+ getId(): long" style="text;strokeColor=none;fillColor=none;align=left;verticalAlign=top;spacingLeft=4;spacingRight=4;overflow=hidden;rotatable=0;points=[[0,0.5],[1,0.5]];portConstraint=eastwest;fontStyle=0" vertex="1" parent="UDVTchjKbU1Y_iN-SW1D-54">
          <mxGeometry y="86" width="160" height="26" as="geometry" />
        </mxCell>
        <mxCell id="UDVTchjKbU1Y_iN-SW1D-62" value="+ getName(): String" style="text;strokeColor=none;fillColor=none;align=left;verticalAlign=top;spacingLeft=4;spacingRight=4;overflow=hidden;rotatable=0;points=[[0,0.5],[1,0.5]];portConstraint=eastwest;fontStyle=0" vertex="1" parent="UDVTchjKbU1Y_iN-SW1D-54">
          <mxGeometry y="112" width="160" height="26" as="geometry" />
        </mxCell>
        <mxCell id="UDVTchjKbU1Y_iN-SW1D-63" value="Event" style="swimlane;fontStyle=1;align=center;verticalAlign=top;childLayout=stackLayout;horizontal=1;startSize=26;horizontalStack=0;resizeParent=1;resizeParentMax=0;resizeLast=0;collapsible=1;marginBottom=0;strokeWidth=1;gradientColor=none;" vertex="1" parent="UDVTchjKbU1Y_iN-SW1D-6">
          <mxGeometry x="190" y="40" width="210" height="294" as="geometry">
            <mxRectangle x="190" y="40" width="60" height="26" as="alternateBounds" />
          </mxGeometry>
        </mxCell>
        <mxCell id="UDVTchjKbU1Y_iN-SW1D-64" value="- id: long" style="text;strokeColor=none;fillColor=none;align=left;verticalAlign=top;spacingLeft=4;spacingRight=4;overflow=hidden;rotatable=0;points=[[0,0.5],[1,0.5]];portConstraint=eastwest;fontStyle=0" vertex="1" parent="UDVTchjKbU1Y_iN-SW1D-63">
          <mxGeometry y="26" width="210" height="26" as="geometry" />
        </mxCell>
        <mxCell id="UDVTchjKbU1Y_iN-SW1D-65" value="- name: String" style="text;strokeColor=none;fillColor=none;align=left;verticalAlign=top;spacingLeft=4;spacingRight=4;overflow=hidden;rotatable=0;points=[[0,0.5],[1,0.5]];portConstraint=eastwest;fontStyle=0" vertex="1" parent="UDVTchjKbU1Y_iN-SW1D-63">
          <mxGeometry y="52" width="210" height="26" as="geometry" />
        </mxCell>
        <mxCell id="UDVTchjKbU1Y_iN-SW1D-69" value="- time: String" style="text;strokeColor=none;fillColor=none;align=left;verticalAlign=top;spacingLeft=4;spacingRight=4;overflow=hidden;rotatable=0;points=[[0,0.5],[1,0.5]];portConstraint=eastwest;fontStyle=0" vertex="1" parent="UDVTchjKbU1Y_iN-SW1D-63">
          <mxGeometry y="78" width="210" height="26" as="geometry" />
        </mxCell>
        <mxCell id="UDVTchjKbU1Y_iN-SW1D-70" value="- owner: Member" style="text;strokeColor=none;fillColor=none;align=left;verticalAlign=top;spacingLeft=4;spacingRight=4;overflow=hidden;rotatable=0;points=[[0,0.5],[1,0.5]];portConstraint=eastwest;fontStyle=0" vertex="1" parent="UDVTchjKbU1Y_iN-SW1D-63">
          <mxGeometry y="104" width="210" height="26" as="geometry" />
        </mxCell>
        <mxCell id="UDVTchjKbU1Y_iN-SW1D-90" value="- members: Member[]" style="text;strokeColor=none;fillColor=none;align=left;verticalAlign=top;spacingLeft=4;spacingRight=4;overflow=hidden;rotatable=0;points=[[0,0.5],[1,0.5]];portConstraint=eastwest;fontStyle=0" vertex="1" parent="UDVTchjKbU1Y_iN-SW1D-63">
          <mxGeometry y="130" width="210" height="26" as="geometry" />
        </mxCell>
        <mxCell id="UDVTchjKbU1Y_iN-SW1D-66" value="" style="line;strokeWidth=1;fillColor=none;align=left;verticalAlign=middle;spacingTop=-1;spacingLeft=3;spacingRight=3;rotatable=0;labelPosition=right;points=[];portConstraint=eastwest;" vertex="1" parent="UDVTchjKbU1Y_iN-SW1D-63">
          <mxGeometry y="156" width="210" height="8" as="geometry" />
        </mxCell>
        <mxCell id="UDVTchjKbU1Y_iN-SW1D-67" value="+ getId(): long" style="text;strokeColor=none;fillColor=none;align=left;verticalAlign=top;spacingLeft=4;spacingRight=4;overflow=hidden;rotatable=0;points=[[0,0.5],[1,0.5]];portConstraint=eastwest;fontStyle=0" vertex="1" parent="UDVTchjKbU1Y_iN-SW1D-63">
          <mxGeometry y="164" width="210" height="26" as="geometry" />
        </mxCell>
        <mxCell id="UDVTchjKbU1Y_iN-SW1D-68" value="+ getName(): String" style="text;strokeColor=none;fillColor=none;align=left;verticalAlign=top;spacingLeft=4;spacingRight=4;overflow=hidden;rotatable=0;points=[[0,0.5],[1,0.5]];portConstraint=eastwest;fontStyle=0" vertex="1" parent="UDVTchjKbU1Y_iN-SW1D-63">
          <mxGeometry y="190" width="210" height="26" as="geometry" />
        </mxCell>
        <mxCell id="UDVTchjKbU1Y_iN-SW1D-91" value="+ getTime(): String" style="text;strokeColor=none;fillColor=none;align=left;verticalAlign=top;spacingLeft=4;spacingRight=4;overflow=hidden;rotatable=0;points=[[0,0.5],[1,0.5]];portConstraint=eastwest;fontStyle=0" vertex="1" parent="UDVTchjKbU1Y_iN-SW1D-63">
          <mxGeometry y="216" width="210" height="26" as="geometry" />
        </mxCell>
        <mxCell id="UDVTchjKbU1Y_iN-SW1D-92" value="+ getOwner(): Member" style="text;strokeColor=none;fillColor=none;align=left;verticalAlign=top;spacingLeft=4;spacingRight=4;overflow=hidden;rotatable=0;points=[[0,0.5],[1,0.5]];portConstraint=eastwest;fontStyle=0" vertex="1" parent="UDVTchjKbU1Y_iN-SW1D-63">
          <mxGeometry y="242" width="210" height="26" as="geometry" />
        </mxCell>
        <mxCell id="UDVTchjKbU1Y_iN-SW1D-93" value="+ getMembers(): Member[]" style="text;strokeColor=none;fillColor=none;align=left;verticalAlign=top;spacingLeft=4;spacingRight=4;overflow=hidden;rotatable=0;points=[[0,0.5],[1,0.5]];portConstraint=eastwest;fontStyle=0" vertex="1" parent="UDVTchjKbU1Y_iN-SW1D-63">
          <mxGeometry y="268" width="210" height="26" as="geometry" />
        </mxCell>
        <mxCell id="UDVTchjKbU1Y_iN-SW1D-108" value="Member" style="swimlane;fontStyle=1;align=center;verticalAlign=top;childLayout=stackLayout;horizontal=1;startSize=26;horizontalStack=0;resizeParent=1;resizeParentMax=0;resizeLast=0;collapsible=1;marginBottom=0;strokeWidth=1;gradientColor=none;" vertex="1" parent="UDVTchjKbU1Y_iN-SW1D-6">
          <mxGeometry x="10" y="240" width="160" height="138" as="geometry" />
        </mxCell>
        <mxCell id="UDVTchjKbU1Y_iN-SW1D-109" value="- id: long" style="text;strokeColor=none;fillColor=none;align=left;verticalAlign=top;spacingLeft=4;spacingRight=4;overflow=hidden;rotatable=0;points=[[0,0.5],[1,0.5]];portConstraint=eastwest;fontStyle=0" vertex="1" parent="UDVTchjKbU1Y_iN-SW1D-108">
          <mxGeometry y="26" width="160" height="26" as="geometry" />
        </mxCell>
        <mxCell id="UDVTchjKbU1Y_iN-SW1D-110" value="- name: String" style="text;strokeColor=none;fillColor=none;align=left;verticalAlign=top;spacingLeft=4;spacingRight=4;overflow=hidden;rotatable=0;points=[[0,0.5],[1,0.5]];portConstraint=eastwest;fontStyle=0" vertex="1" parent="UDVTchjKbU1Y_iN-SW1D-108">
          <mxGeometry y="52" width="160" height="26" as="geometry" />
        </mxCell>
        <mxCell id="UDVTchjKbU1Y_iN-SW1D-111" value="" style="line;strokeWidth=1;fillColor=none;align=left;verticalAlign=middle;spacingTop=-1;spacingLeft=3;spacingRight=3;rotatable=0;labelPosition=right;points=[];portConstraint=eastwest;" vertex="1" parent="UDVTchjKbU1Y_iN-SW1D-108">
          <mxGeometry y="78" width="160" height="8" as="geometry" />
        </mxCell>
        <mxCell id="UDVTchjKbU1Y_iN-SW1D-112" value="+ getId(): long" style="text;strokeColor=none;fillColor=none;align=left;verticalAlign=top;spacingLeft=4;spacingRight=4;overflow=hidden;rotatable=0;points=[[0,0.5],[1,0.5]];portConstraint=eastwest;fontStyle=0" vertex="1" parent="UDVTchjKbU1Y_iN-SW1D-108">
          <mxGeometry y="86" width="160" height="26" as="geometry" />
        </mxCell>
        <mxCell id="UDVTchjKbU1Y_iN-SW1D-113" value="+ getName(): String" style="text;strokeColor=none;fillColor=none;align=left;verticalAlign=top;spacingLeft=4;spacingRight=4;overflow=hidden;rotatable=0;points=[[0,0.5],[1,0.5]];portConstraint=eastwest;fontStyle=0" vertex="1" parent="UDVTchjKbU1Y_iN-SW1D-108">
          <mxGeometry y="112" width="160" height="26" as="geometry" />
        </mxCell>
        <mxCell id="UDVTchjKbU1Y_iN-SW1D-116" value="Extends" style="endArrow=block;endSize=16;endFill=0;html=1;exitX=0.5;exitY=0;exitDx=0;exitDy=0;entryX=0.5;entryY=1;entryDx=0;entryDy=0;" edge="1" parent="UDVTchjKbU1Y_iN-SW1D-6" source="UDVTchjKbU1Y_iN-SW1D-108" target="UDVTchjKbU1Y_iN-SW1D-54">
          <mxGeometry width="160" relative="1" as="geometry">
            <mxPoint x="150" y="190" as="sourcePoint" />
            <mxPoint x="310" y="190" as="targetPoint" />
          </mxGeometry>
        </mxCell>
        <mxCell id="UDVTchjKbU1Y_iN-SW1D-3" value="command" style="shape=folder;fontStyle=1;tabWidth=110;tabHeight=30;tabPosition=left;html=1;boundedLbl=1;labelInHeader=1;container=1;collapsible=0;recursiveResize=0;" vertex="1" parent="1">
          <mxGeometry x="-240" y="-140" width="810" height="480" as="geometry" />
        </mxCell>
        <mxCell id="UDVTchjKbU1Y_iN-SW1D-42" value="&lt;p style=&quot;margin: 0px ; margin-top: 4px ; text-align: center&quot;&gt;&lt;i&gt;&amp;lt;&amp;lt;Interface&amp;gt;&amp;gt;&lt;/i&gt;&lt;br&gt;&lt;b&gt;Command&lt;/b&gt;&lt;/p&gt;&lt;hr size=&quot;1&quot;&gt;&lt;p style=&quot;margin: 0px ; margin-left: 4px&quot;&gt;&lt;/p&gt;&lt;p style=&quot;margin: 0px ; margin-left: 4px&quot;&gt;+ execute()&lt;/p&gt;" style="verticalAlign=top;align=left;overflow=fill;fontSize=12;fontFamily=Helvetica;html=1;strokeWidth=1;gradientColor=none;" vertex="1" parent="UDVTchjKbU1Y_iN-SW1D-3">
          <mxGeometry x="10" y="40" width="190" height="70" as="geometry" />
        </mxCell>
        <mxCell id="UDVTchjKbU1Y_iN-SW1D-4" value="message" style="shape=folder;fontStyle=1;tabWidth=110;tabHeight=30;tabPosition=left;html=1;boundedLbl=1;labelInHeader=1;container=1;collapsible=0;recursiveResize=0;" vertex="1" parent="1">
          <mxGeometry x="730" y="500" width="760" height="460" as="geometry" />
        </mxCell>
        <mxCell id="UDVTchjKbU1Y_iN-SW1D-27" value="Message" style="swimlane;fontStyle=0;childLayout=stackLayout;horizontal=1;startSize=26;fillColor=none;horizontalStack=0;resizeParent=1;resizeParentMax=0;resizeLast=0;collapsible=1;marginBottom=0;strokeWidth=1;" vertex="1" parent="UDVTchjKbU1Y_iN-SW1D-4">
          <mxGeometry x="10" y="40" width="140" height="52" as="geometry" />
        </mxCell>
        <mxCell id="UDVTchjKbU1Y_iN-SW1D-28" value="+ sender: User" style="text;strokeColor=none;fillColor=none;align=left;verticalAlign=top;spacingLeft=4;spacingRight=4;overflow=hidden;rotatable=0;points=[[0,0.5],[1,0.5]];portConstraint=eastwest;" vertex="1" parent="UDVTchjKbU1Y_iN-SW1D-27">
          <mxGeometry y="26" width="140" height="26" as="geometry" />
        </mxCell>
        <mxCell id="UDVTchjKbU1Y_iN-SW1D-31" value="DefaultMessage" style="swimlane;fontStyle=0;childLayout=stackLayout;horizontal=1;startSize=26;fillColor=none;horizontalStack=0;resizeParent=1;resizeParentMax=0;resizeLast=0;collapsible=1;marginBottom=0;strokeWidth=1;" vertex="1" parent="UDVTchjKbU1Y_iN-SW1D-4">
          <mxGeometry x="180" y="130" width="140" height="52" as="geometry" />
        </mxCell>
        <mxCell id="UDVTchjKbU1Y_iN-SW1D-33" value="+ text: String" style="text;strokeColor=none;fillColor=none;align=left;verticalAlign=top;spacingLeft=4;spacingRight=4;overflow=hidden;rotatable=0;points=[[0,0.5],[1,0.5]];portConstraint=eastwest;" vertex="1" parent="UDVTchjKbU1Y_iN-SW1D-31">
          <mxGeometry y="26" width="140" height="26" as="geometry" />
        </mxCell>
        <mxCell id="UDVTchjKbU1Y_iN-SW1D-35" value="CallbackMessage" style="swimlane;fontStyle=0;childLayout=stackLayout;horizontal=1;startSize=26;fillColor=none;horizontalStack=0;resizeParent=1;resizeParentMax=0;resizeLast=0;collapsible=1;marginBottom=0;strokeWidth=1;" vertex="1" parent="UDVTchjKbU1Y_iN-SW1D-4">
          <mxGeometry x="10" y="130" width="140" height="52" as="geometry" />
        </mxCell>
        <mxCell id="UDVTchjKbU1Y_iN-SW1D-37" value="+ callback: String" style="text;strokeColor=none;fillColor=none;align=left;verticalAlign=top;spacingLeft=4;spacingRight=4;overflow=hidden;rotatable=0;points=[[0,0.5],[1,0.5]];portConstraint=eastwest;" vertex="1" parent="UDVTchjKbU1Y_iN-SW1D-35">
          <mxGeometry y="26" width="140" height="26" as="geometry" />
        </mxCell>
        <mxCell id="UDVTchjKbU1Y_iN-SW1D-39" value="Extends" style="endArrow=block;endSize=16;endFill=0;html=1;exitX=0.5;exitY=0;exitDx=0;exitDy=0;entryX=1;entryY=0.5;entryDx=0;entryDy=0;" edge="1" parent="UDVTchjKbU1Y_iN-SW1D-4" source="UDVTchjKbU1Y_iN-SW1D-31" target="UDVTchjKbU1Y_iN-SW1D-27">
          <mxGeometry width="160" relative="1" as="geometry">
            <mxPoint x="240" y="65.75999999999999" as="sourcePoint" />
            <mxPoint x="400" y="65.75999999999999" as="targetPoint" />
          </mxGeometry>
        </mxCell>
        <mxCell id="UDVTchjKbU1Y_iN-SW1D-40" value="Extends" style="endArrow=block;endSize=16;endFill=0;html=1;exitX=0.5;exitY=0;exitDx=0;exitDy=0;entryX=0.5;entryY=1;entryDx=0;entryDy=0;" edge="1" parent="UDVTchjKbU1Y_iN-SW1D-4" source="UDVTchjKbU1Y_iN-SW1D-35" target="UDVTchjKbU1Y_iN-SW1D-27">
          <mxGeometry width="160" relative="1" as="geometry">
            <mxPoint x="260" y="130" as="sourcePoint" />
            <mxPoint x="160" y="76.00000000000045" as="targetPoint" />
          </mxGeometry>
        </mxCell>
        <mxCell id="UDVTchjKbU1Y_iN-SW1D-164" value="not sure about that for now" style="shape=note2;boundedLbl=1;whiteSpace=wrap;html=1;size=25;verticalAlign=top;align=center;strokeWidth=1;gradientColor=none;fontSize=9;" vertex="1" parent="UDVTchjKbU1Y_iN-SW1D-4">
          <mxGeometry x="470" y="70" width="120" height="60" as="geometry" />
        </mxCell>
        <mxCell id="UDVTchjKbU1Y_iN-SW1D-21" style="edgeStyle=orthogonalEdgeStyle;rounded=0;orthogonalLoop=1;jettySize=auto;html=1;entryX=0;entryY=0;entryDx=810;entryDy=255;entryPerimeter=0;" edge="1" parent="1" source="UDVTchjKbU1Y_iN-SW1D-5" target="UDVTchjKbU1Y_iN-SW1D-3">
          <mxGeometry relative="1" as="geometry" />
        </mxCell>
        <mxCell id="UDVTchjKbU1Y_iN-SW1D-5" value="handler" style="shape=folder;fontStyle=1;tabWidth=110;tabHeight=30;tabPosition=left;html=1;boundedLbl=1;labelInHeader=1;container=1;collapsible=0;recursiveResize=0;" vertex="1" parent="1">
          <mxGeometry x="720" y="-120" width="760" height="470" as="geometry" />
        </mxCell>
        <mxCell id="UDVTchjKbU1Y_iN-SW1D-12" value="builderbymessages" style="shape=folder;fontStyle=1;tabWidth=120;tabHeight=30;tabPosition=left;html=1;boundedLbl=1;labelInHeader=1;container=1;collapsible=0;recursiveResize=0;" vertex="1" parent="UDVTchjKbU1Y_iN-SW1D-5">
          <mxGeometry x="330" y="210" width="420" height="250" as="geometry" />
        </mxCell>
        <mxCell id="UDVTchjKbU1Y_iN-SW1D-26" value="&lt;p style=&quot;margin: 0px ; margin-top: 4px ; text-align: center&quot;&gt;&lt;i&gt;&amp;lt;&amp;lt;Interface&amp;gt;&amp;gt;&lt;/i&gt;&lt;br&gt;&lt;b&gt;Handler&lt;/b&gt;&lt;/p&gt;&lt;hr size=&quot;1&quot;&gt;&lt;p style=&quot;margin: 0px ; margin-left: 4px&quot;&gt;&lt;span&gt;+ onMessage(Message)&lt;/span&gt;&lt;br&gt;&lt;/p&gt;" style="verticalAlign=top;align=left;overflow=fill;fontSize=12;fontFamily=Helvetica;html=1;strokeWidth=1;gradientColor=none;" vertex="1" parent="UDVTchjKbU1Y_iN-SW1D-5">
          <mxGeometry x="10" y="40" width="190" height="70" as="geometry" />
        </mxCell>
        <mxCell id="UDVTchjKbU1Y_iN-SW1D-16" value="locales" style="shape=folder;fontStyle=1;tabWidth=110;tabHeight=30;tabPosition=left;html=1;boundedLbl=1;labelInHeader=1;container=1;collapsible=0;recursiveResize=0;" vertex="1" parent="1">
          <mxGeometry x="-240" y="-780" width="810" height="530" as="geometry" />
        </mxCell>
        <mxCell id="UDVTchjKbU1Y_iN-SW1D-172" value="Russian" style="swimlane;fontStyle=1;align=center;verticalAlign=top;childLayout=stackLayout;horizontal=1;startSize=26;horizontalStack=0;resizeParent=1;resizeParentMax=0;resizeLast=0;collapsible=1;marginBottom=0;strokeWidth=1;gradientColor=none;fontSize=9;" vertex="1" parent="UDVTchjKbU1Y_iN-SW1D-16">
          <mxGeometry x="10" y="42" width="790" height="476" as="geometry" />
        </mxCell>
        <mxCell id="UDVTchjKbU1Y_iN-SW1D-173" value="+ START_COMMAND_RESPONSE_TEXT : String = &quot;Теперь вы будете получать уведомления о мероприятиях. Вы можете создать свое мероприятие используя кнопку \&quot;Создать мероприятие\&quot;" style="text;strokeColor=none;fillColor=none;align=left;verticalAlign=top;spacingLeft=4;spacingRight=4;overflow=hidden;rotatable=0;points=[[0,0.5],[1,0.5]];portConstraint=eastwest;fontStyle=4" vertex="1" parent="UDVTchjKbU1Y_iN-SW1D-172">
          <mxGeometry y="26" width="790" height="26" as="geometry" />
        </mxCell>
        <mxCell id="UDVTchjKbU1Y_iN-SW1D-176" value="+ CREATE_EVENT_BUTTON_TEXT : String = &quot;Создать мероприятие&quot;" style="text;strokeColor=none;fillColor=none;align=left;verticalAlign=top;spacingLeft=4;spacingRight=4;overflow=hidden;rotatable=0;points=[[0,0.5],[1,0.5]];portConstraint=eastwest;fontStyle=4" vertex="1" parent="UDVTchjKbU1Y_iN-SW1D-172">
          <mxGeometry y="52" width="790" height="26" as="geometry" />
        </mxCell>
        <mxCell id="UDVTchjKbU1Y_iN-SW1D-180" value="+ MAY_GO_ON_EVENT_BUTTON_TEXT: String = &quot;Возможно, пойду&quot;" style="text;strokeColor=none;fillColor=none;align=left;verticalAlign=top;spacingLeft=4;spacingRight=4;overflow=hidden;rotatable=0;points=[[0,0.5],[1,0.5]];portConstraint=eastwest;fontStyle=4" vertex="1" parent="UDVTchjKbU1Y_iN-SW1D-172">
          <mxGeometry y="78" width="790" height="26" as="geometry" />
        </mxCell>
        <mxCell id="UDVTchjKbU1Y_iN-SW1D-179" value="+ GO_ON_EVENT_BUTTON_TEXT : String = &quot;Пойду&quot;" style="text;strokeColor=none;fillColor=none;align=left;verticalAlign=top;spacingLeft=4;spacingRight=4;overflow=hidden;rotatable=0;points=[[0,0.5],[1,0.5]];portConstraint=eastwest;fontStyle=4" vertex="1" parent="UDVTchjKbU1Y_iN-SW1D-172">
          <mxGeometry y="104" width="790" height="26" as="geometry" />
        </mxCell>
        <mxCell id="UDVTchjKbU1Y_iN-SW1D-178" value="+ LEAVE_EVENT_BUTTON_TEXT : String = &quot;Покинуть&quot;" style="text;strokeColor=none;fillColor=none;align=left;verticalAlign=top;spacingLeft=4;spacingRight=4;overflow=hidden;rotatable=0;points=[[0,0.5],[1,0.5]];portConstraint=eastwest;fontStyle=4" vertex="1" parent="UDVTchjKbU1Y_iN-SW1D-172">
          <mxGeometry y="130" width="790" height="26" as="geometry" />
        </mxCell>
        <mxCell id="UDVTchjKbU1Y_iN-SW1D-177" value="+ DELETE_EVENT_BUTTON_TEXT : String = &quot;Удалить&quot;" style="text;strokeColor=none;fillColor=none;align=left;verticalAlign=top;spacingLeft=4;spacingRight=4;overflow=hidden;rotatable=0;points=[[0,0.5],[1,0.5]];portConstraint=eastwest;fontStyle=4" vertex="1" parent="UDVTchjKbU1Y_iN-SW1D-172">
          <mxGeometry y="156" width="790" height="26" as="geometry" />
        </mxCell>
        <mxCell id="UDVTchjKbU1Y_iN-SW1D-184" value="- EVENT_CREATED_TEMPLATE: String = &quot;%s создал новое мероприятие!\nНазвание: %s\n Время проведения:%s&quot;" style="text;strokeColor=none;fillColor=none;align=left;verticalAlign=top;spacingLeft=4;spacingRight=4;overflow=hidden;rotatable=0;points=[[0,0.5],[1,0.5]];portConstraint=eastwest;fontStyle=4" vertex="1" parent="UDVTchjKbU1Y_iN-SW1D-172">
          <mxGeometry y="182" width="790" height="26" as="geometry" />
        </mxCell>
        <mxCell id="UDVTchjKbU1Y_iN-SW1D-182" value="- MAY_GO_ON_EVENT_TEMPLATE : String = &quot;%s возможно пойдет на мероприятие %s&quot;" style="text;strokeColor=none;fillColor=none;align=left;verticalAlign=top;spacingLeft=4;spacingRight=4;overflow=hidden;rotatable=0;points=[[0,0.5],[1,0.5]];portConstraint=eastwest;fontStyle=4" vertex="1" parent="UDVTchjKbU1Y_iN-SW1D-172">
          <mxGeometry y="208" width="790" height="26" as="geometry" />
        </mxCell>
        <mxCell id="UDVTchjKbU1Y_iN-SW1D-181" value="- WILL_GO_ON_EVENT_TEMPLATE : String = &quot;%s пойдет на мероприятие %s&quot; " style="text;strokeColor=none;fillColor=none;align=left;verticalAlign=top;spacingLeft=4;spacingRight=4;overflow=hidden;rotatable=0;points=[[0,0.5],[1,0.5]];portConstraint=eastwest;fontStyle=4" vertex="1" parent="UDVTchjKbU1Y_iN-SW1D-172">
          <mxGeometry y="234" width="790" height="26" as="geometry" />
        </mxCell>
        <mxCell id="UDVTchjKbU1Y_iN-SW1D-183" value="- EVENT_LEFT_TEMPLATE : String = &quot;%s покинул мероприятие %s&quot;" style="text;strokeColor=none;fillColor=none;align=left;verticalAlign=top;spacingLeft=4;spacingRight=4;overflow=hidden;rotatable=0;points=[[0,0.5],[1,0.5]];portConstraint=eastwest;fontStyle=4" vertex="1" parent="UDVTchjKbU1Y_iN-SW1D-172">
          <mxGeometry y="260" width="790" height="26" as="geometry" />
        </mxCell>
        <mxCell id="UDVTchjKbU1Y_iN-SW1D-185" value="- EVENT_DELETED_TEMPLATE : String = &quot;%s удалил мероприятие %s&quot;" style="text;strokeColor=none;fillColor=none;align=left;verticalAlign=top;spacingLeft=4;spacingRight=4;overflow=hidden;rotatable=0;points=[[0,0.5],[1,0.5]];portConstraint=eastwest;fontStyle=4" vertex="1" parent="UDVTchjKbU1Y_iN-SW1D-172">
          <mxGeometry y="286" width="790" height="26" as="geometry" />
        </mxCell>
        <mxCell id="UDVTchjKbU1Y_iN-SW1D-174" value="" style="line;strokeWidth=1;fillColor=none;align=left;verticalAlign=middle;spacingTop=-1;spacingLeft=3;spacingRight=3;rotatable=0;labelPosition=right;points=[];portConstraint=eastwest;" vertex="1" parent="UDVTchjKbU1Y_iN-SW1D-172">
          <mxGeometry y="312" width="790" height="8" as="geometry" />
        </mxCell>
        <mxCell id="UDVTchjKbU1Y_iN-SW1D-175" value="+ getEventCreatedText(User, Event): String" style="text;strokeColor=none;fillColor=none;align=left;verticalAlign=top;spacingLeft=4;spacingRight=4;overflow=hidden;rotatable=0;points=[[0,0.5],[1,0.5]];portConstraint=eastwest;fontStyle=4" vertex="1" parent="UDVTchjKbU1Y_iN-SW1D-172">
          <mxGeometry y="320" width="790" height="26" as="geometry" />
        </mxCell>
        <mxCell id="UDVTchjKbU1Y_iN-SW1D-186" value="+ getMayGoOnEventText(User, Event): String " style="text;strokeColor=none;fillColor=none;align=left;verticalAlign=top;spacingLeft=4;spacingRight=4;overflow=hidden;rotatable=0;points=[[0,0.5],[1,0.5]];portConstraint=eastwest;fontStyle=4" vertex="1" parent="UDVTchjKbU1Y_iN-SW1D-172">
          <mxGeometry y="346" width="790" height="26" as="geometry" />
        </mxCell>
        <mxCell id="UDVTchjKbU1Y_iN-SW1D-189" value="+ getWillGoOnEventText(User, Event): String" style="text;strokeColor=none;fillColor=none;align=left;verticalAlign=top;spacingLeft=4;spacingRight=4;overflow=hidden;rotatable=0;points=[[0,0.5],[1,0.5]];portConstraint=eastwest;fontStyle=4" vertex="1" parent="UDVTchjKbU1Y_iN-SW1D-172">
          <mxGeometry y="372" width="790" height="26" as="geometry" />
        </mxCell>
        <mxCell id="UDVTchjKbU1Y_iN-SW1D-187" value="+ getLeftEventText(User, Event): String" style="text;strokeColor=none;fillColor=none;align=left;verticalAlign=top;spacingLeft=4;spacingRight=4;overflow=hidden;rotatable=0;points=[[0,0.5],[1,0.5]];portConstraint=eastwest;fontStyle=4" vertex="1" parent="UDVTchjKbU1Y_iN-SW1D-172">
          <mxGeometry y="398" width="790" height="26" as="geometry" />
        </mxCell>
        <mxCell id="UDVTchjKbU1Y_iN-SW1D-188" value="+ getEventDeletedText(User, Event): String" style="text;strokeColor=none;fillColor=none;align=left;verticalAlign=top;spacingLeft=4;spacingRight=4;overflow=hidden;rotatable=0;points=[[0,0.5],[1,0.5]];portConstraint=eastwest;fontStyle=4" vertex="1" parent="UDVTchjKbU1Y_iN-SW1D-172">
          <mxGeometry y="424" width="790" height="26" as="geometry" />
        </mxCell>
        <mxCell id="UDVTchjKbU1Y_iN-SW1D-190" value="- getEventMembersText(Event): String" style="text;strokeColor=none;fillColor=none;align=left;verticalAlign=top;spacingLeft=4;spacingRight=4;overflow=hidden;rotatable=0;points=[[0,0.5],[1,0.5]];portConstraint=eastwest;fontStyle=4" vertex="1" parent="UDVTchjKbU1Y_iN-SW1D-172">
          <mxGeometry y="450" width="790" height="26" as="geometry" />
        </mxCell>
        <mxCell id="UDVTchjKbU1Y_iN-SW1D-20" style="edgeStyle=orthogonalEdgeStyle;rounded=0;orthogonalLoop=1;jettySize=auto;html=1;entryX=0.501;entryY=0.062;entryDx=0;entryDy=0;entryPerimeter=0;" edge="1" parent="1" source="UDVTchjKbU1Y_iN-SW1D-17" target="UDVTchjKbU1Y_iN-SW1D-5">
          <mxGeometry relative="1" as="geometry" />
        </mxCell>
        <mxCell id="UDVTchjKbU1Y_iN-SW1D-17" value="main" style="shape=folder;fontStyle=1;tabWidth=110;tabHeight=30;tabPosition=left;html=1;boundedLbl=1;labelInHeader=1;container=1;collapsible=0;recursiveResize=0;strokeWidth=4;" vertex="1" parent="1">
          <mxGeometry x="720" y="-770" width="760" height="530" as="geometry" />
        </mxCell>
        <mxCell id="UDVTchjKbU1Y_iN-SW1D-43" value="Application" style="swimlane;fontStyle=1;align=center;verticalAlign=top;childLayout=stackLayout;horizontal=1;startSize=26;horizontalStack=0;resizeParent=1;resizeParentMax=0;resizeLast=0;collapsible=1;marginBottom=0;strokeWidth=1;gradientColor=none;" vertex="1" parent="UDVTchjKbU1Y_iN-SW1D-17">
          <mxGeometry x="10" y="40" width="170" height="112" as="geometry" />
        </mxCell>
        <mxCell id="UDVTchjKbU1Y_iN-SW1D-47" value="+ bot: Bot" style="text;strokeColor=none;fillColor=none;align=left;verticalAlign=top;spacingLeft=4;spacingRight=4;overflow=hidden;rotatable=0;points=[[0,0.5],[1,0.5]];portConstraint=eastwest;fontStyle=4" vertex="1" parent="UDVTchjKbU1Y_iN-SW1D-43">
          <mxGeometry y="26" width="170" height="26" as="geometry" />
        </mxCell>
        <mxCell id="UDVTchjKbU1Y_iN-SW1D-44" value="+ dataManager: DataManager" style="text;strokeColor=none;fillColor=none;align=left;verticalAlign=top;spacingLeft=4;spacingRight=4;overflow=hidden;rotatable=0;points=[[0,0.5],[1,0.5]];portConstraint=eastwest;fontStyle=4" vertex="1" parent="UDVTchjKbU1Y_iN-SW1D-43">
          <mxGeometry y="52" width="170" height="26" as="geometry" />
        </mxCell>
        <mxCell id="UDVTchjKbU1Y_iN-SW1D-45" value="" style="line;strokeWidth=1;fillColor=none;align=left;verticalAlign=middle;spacingTop=-1;spacingLeft=3;spacingRight=3;rotatable=0;labelPosition=right;points=[];portConstraint=eastwest;" vertex="1" parent="UDVTchjKbU1Y_iN-SW1D-43">
          <mxGeometry y="78" width="170" height="8" as="geometry" />
        </mxCell>
        <mxCell id="UDVTchjKbU1Y_iN-SW1D-46" value="+ main(String[])" style="text;strokeColor=none;fillColor=none;align=left;verticalAlign=top;spacingLeft=4;spacingRight=4;overflow=hidden;rotatable=0;points=[[0,0.5],[1,0.5]];portConstraint=eastwest;fontStyle=4" vertex="1" parent="UDVTchjKbU1Y_iN-SW1D-43">
          <mxGeometry y="86" width="170" height="26" as="geometry" />
        </mxCell>
        <mxCell id="UDVTchjKbU1Y_iN-SW1D-171" value="&lt;p style=&quot;margin: 0px ; margin-top: 4px ; text-align: center&quot;&gt;&lt;i&gt;&amp;lt;&amp;lt;Interface&amp;gt;&amp;gt;&lt;/i&gt;&lt;br&gt;&lt;b&gt;Bot&lt;/b&gt;&lt;/p&gt;&lt;hr size=&quot;1&quot;&gt;&lt;p style=&quot;margin: 0px ; margin-left: 4px&quot;&gt;+ start()&lt;/p&gt;&lt;p style=&quot;margin: 0px ; margin-left: 4px&quot;&gt;+ send(Message, User[])&lt;/p&gt;&lt;p style=&quot;margin: 0px ; margin-left: 4px&quot;&gt;- onUpdate()&lt;/p&gt;" style="verticalAlign=top;align=left;overflow=fill;fontSize=12;fontFamily=Helvetica;html=1;strokeWidth=1;gradientColor=none;" vertex="1" parent="UDVTchjKbU1Y_iN-SW1D-17">
          <mxGeometry x="210" y="40" width="190" height="140" as="geometry" />
        </mxCell>
        <mxCell id="UDVTchjKbU1Y_iN-SW1D-24" value="request" style="shape=folder;fontStyle=1;tabWidth=110;tabHeight=30;tabPosition=left;html=1;boundedLbl=1;labelInHeader=1;container=1;collapsible=0;recursiveResize=0;" vertex="1" parent="1">
          <mxGeometry x="730" y="1020" width="760" height="460" as="geometry" />
        </mxCell>
        <mxCell id="UDVTchjKbU1Y_iN-SW1D-165" value="not sure about that for now" style="shape=note2;boundedLbl=1;whiteSpace=wrap;html=1;size=25;verticalAlign=top;align=center;strokeWidth=1;gradientColor=none;fontSize=9;" vertex="1" parent="UDVTchjKbU1Y_iN-SW1D-24">
          <mxGeometry x="440" y="50" width="120" height="60" as="geometry" />
        </mxCell>
      </root>
    </mxGraphModel>
  </diagram>
</mxfile>
